<svg xmlns="http://www.w3.org/2000/svg" width="25.122" height="25.122" viewBox="0 0 25.122 25.122">
  <path id="steam" d="M25.122,20.561A12.584,12.584,0,0,1,.436,23.985l4.822,1.991a3.56,3.56,0,0,0,7.045-.866l4.28-3.049a4.736,4.736,0,1,0-4.639-4.736v.061l-3,4.341a3.546,3.546,0,0,0-2.2.613L0,19.553a12.582,12.582,0,0,1,25.122,1.008Zm-17.236,6.5-1.545-.638a2.671,2.671,0,0,0,4.872-.132,2.667,2.667,0,0,0-3.409-3.52l1.6.658a1.967,1.967,0,0,1-1.514,3.632Zm8.8-6.579a3.155,3.155,0,1,1,3.16-3.155A3.163,3.163,0,0,1,16.689,20.48Zm.005-.79a2.37,2.37,0,1,0-2.375-2.37A2.375,2.375,0,0,0,16.694,19.69Z" transform="translate(0 -8)" fill="#2a475e"/>
</svg>
