<svg xmlns="http://www.w3.org/2000/svg" width="26.472" height="21.5" viewBox="0 0 26.472 21.5">
  <path id="twitter" d="M23.751,53.44c.017.235.017.47.017.705A15.331,15.331,0,0,1,8.331,69.582,15.332,15.332,0,0,1,0,67.147a11.225,11.225,0,0,0,1.31.067A10.865,10.865,0,0,0,8.046,64.9a5.435,5.435,0,0,1-5.073-3.763A6.842,6.842,0,0,0,4,61.217a5.738,5.738,0,0,0,1.428-.185,5.426,5.426,0,0,1-4.35-5.325v-.067a5.464,5.464,0,0,0,2.452.689,5.433,5.433,0,0,1-1.68-7.256A15.422,15.422,0,0,0,13.034,54.75a6.124,6.124,0,0,1-.134-1.243A5.431,5.431,0,0,1,22.289,49.8a10.681,10.681,0,0,0,3.443-1.31,5.411,5.411,0,0,1-2.385,2.99,10.876,10.876,0,0,0,3.124-.84,11.663,11.663,0,0,1-2.721,2.805Z" transform="translate(0 -48.082)" fill="#38a1f3"/>
</svg>
