<svg xmlns="http://www.w3.org/2000/svg" xmlns:xlink="http://www.w3.org/1999/xlink" width="115" height="115" viewBox="0 0 115 115"><defs><linearGradient id="a" x1="-0.377" y1="0.216" x2="0.723" y2="0.847" gradientUnits="objectBoundingBox"><stop offset="0" stop-color="#fff" stop-opacity="0.149"/><stop offset="1" stop-color="#212121" stop-opacity="0"/></linearGradient><linearGradient id="b" x1="0.146" y1="0.146" x2="0.854" y2="0.854" gradientUnits="objectBoundingBox"><stop offset="0" stop-color="#fff" stop-opacity="0.149"/><stop offset="0.334" stop-color="#8b8b8b" stop-opacity="0.071"/><stop offset="0.688" stop-color="#3c3c3c" stop-opacity="0.02"/><stop offset="1" stop-color="#212121" stop-opacity="0"/></linearGradient></defs><g transform="translate(-8 -8)"><g transform="translate(8 8)"><path d="M65.5,8A57.534,57.534,0,0,0,8,65.567H123A57.534,57.534,0,0,0,65.5,8Z" transform="translate(-8 -8)" fill="#e0e0e0"/><path d="M65.5,9.308a57.532,57.532,0,0,1,57.484,56.259H123a57.5,57.5,0,1,0-115,0h.016A57.532,57.532,0,0,1,65.5,9.308Z" transform="translate(-8 -8)" fill="#fff" opacity="0.68"/><path d="M8,96a57.5,57.5,0,1,0,115,0Z" transform="translate(-8 -38.567)" fill="#f5f5f5"/><path d="M121.255,109.463A57.5,57.5,0,0,1,8.008,96H8a57.5,57.5,0,1,0,115,0h-.01A57.693,57.693,0,0,1,121.255,109.463Z" transform="translate(-8 -38.567)" fill="#212121" opacity="0.2"/><path d="M65.584,96H50.554l29.655,40.983L60.9,109.12Z" transform="translate(-22.76 -38.567)" fill="#aedbb0"/><path d="M95.886,96v0Z" transform="translate(-38.46 -38.567)" fill="#66bb6a"/><path d="M71.054,96l-4.682,13.12,19.308,27.863V96Z" transform="translate(-28.24 -38.567)" fill="#66bb6a"/><path d="M124.433,96h-11.5l1.352,3.252L95.9,136.971l0,.006L124.434,96Z" transform="translate(-38.485 -38.567)" fill="#388e3c"/><path d="M105.61,99.115,95.9,136.971,115.866,96H104.923Z" transform="translate(-38.478 -38.567)" fill="#1b5e20"/><path d="M95.888,96h0v40.983l0-.006Z" transform="translate(-38.461 -38.567)" fill="#1b5e20"/><path d="M104.921,96H95.889v40.977l0-.007L106.407,96Z" transform="translate(-38.468 -38.567)" fill="#81c784"/><path d="M95.891,158.646l0-.007,0,0Z" transform="translate(-38.462 -60.229)" fill="#81c784"/><path d="M95.891,158.636v0l0,0,0-.006Z" transform="translate(-38.462 -60.226)" fill="#81c784"/><path d="M95.886,158.646l0,0v0Z" transform="translate(-38.461 -60.23)" fill="#388e3c"/><path d="M80.208,33.357,50.554,74.336H65.584Z" transform="translate(-22.76 -16.769)" fill="#66bb6a"/><path d="M95.885,74.334h0V33.355h0Z" transform="translate(-38.46 -16.767)" fill="#66bb6a"/><path d="M88.154,74.336V33.357h0L73.529,74.336Z" transform="translate(-30.719 -16.769)" fill="#388e3c"/><path d="M124.43,74.334,95.886,33.351l17.039,40.983Z" transform="translate(-38.483 -16.767)" fill="#1b5e20"/><path d="M115.863,74.334,95.886,33.351l9.034,40.983Z" transform="translate(-38.475 -16.767)" fill="#174c19"/><path d="M95.888,74.334v0Z" transform="translate(-38.461 -16.767)" fill="#1b5e20"/><path d="M106.406,74.334,95.886,33.351V74.334Z" transform="translate(-38.467 -16.767)" fill="#66bb6a"/></g><g transform="translate(65.357 24.584)"><path d="M151.587,89.26c-5.168,20.486-21.987,35.962-42.528,41.057L95.887,115.2l0-81.853Z" transform="translate(-95.884 -33.351)" fill="url(#a)"/></g><g transform="translate(8 8)"><path d="M123,65.5A57.5,57.5,0,1,1,65.5,8,57.6,57.6,0,0,1,123,65.5Z" transform="translate(-8 -8)" fill="url(#b)"/></g></g></svg>