<?xml version="1.0" encoding="utf-8"?>
<!-- Generator: Adobe Illustrator 22.1.0, SVG Export Plug-In . SVG Version: 6.00 Build 0)  -->
<svg version="1.1" id="Layer_1" xmlns="http://www.w3.org/2000/svg" xmlns:xlink="http://www.w3.org/1999/xlink" x="0px" y="0px"
	 viewBox="0 0 362.3 96.7" style="enable-background:new 0 0 362.3 96.7;" xml:space="preserve">
<style type="text/css">
	.st0{fill:#EEEEEE;}
</style>
<title>skyline</title>
<g>
	<g>
		<path class="st0" d="M338.3,2.2c-0.3-0.8-1.6,0-1,0.6C337.6,3.4,338.5,2.8,338.3,2.2z"/>
		<path class="st0" d="M339.3,0.8c-0.4-0.5-1.3,0.2-0.8,0.6C339,1.8,339.7,1.3,339.3,0.8z"/>
		<path class="st0" d="M335.5,9.6c0.3-0.2-0.2-0.6-0.3-0.3C335.1,9.5,335.3,9.9,335.5,9.6z"/>
		<path class="st0" d="M338.5,4.4c0.5,0.3,1.1-0.4,0.8-0.9C338.7,2.8,337.8,4,338.5,4.4z"/>
		<path class="st0" d="M339.8,2.8c0.8-0.1,0.3-1.7-0.5-1C338.8,2.2,339.2,3,339.8,2.8z"/>
		<path class="st0" d="M335.5,10.4c0.2-0.2,0.1-0.6-0.2-0.5C334.9,10,335.1,10.6,335.5,10.4z"/>
		<path class="st0" d="M340.4,1.3c0.5-0.5-0.5-1-0.7-0.4C339.7,1.3,340.1,1.5,340.4,1.3z"/>
		<path class="st0" d="M336.3,10.1c0.2-0.2,0.1-0.8-0.3-0.6C335.5,9.7,335.8,10.3,336.3,10.1z"/>
		<path class="st0" d="M335.9,10.9c0.3,0.2,0.7-0.1,0.5-0.5C336.1,10,335.5,10.7,335.9,10.9z"/>
		<path class="st0" d="M337.1,10.7c0.4-0.3-0.2-0.8-0.4-0.5C336.4,10.5,336.8,10.9,337.1,10.7z"/>
		<path class="st0" d="M336.5,11.4c0.1,0.4,0.8,0.1,0.6-0.3C336.9,10.8,336.4,11,336.5,11.4z"/>
		<path class="st0" d="M331.2,26.8c-0.3-0.4-0.8,0.2-0.4,0.4C331.1,27.4,331.4,27.1,331.2,26.8z"/>
		<path class="st0" d="M345.5,14.2c0.3,0.2,0.6-0.1,0.4-0.4C345.6,13.4,345.1,14,345.5,14.2z"/>
		<path class="st0" d="M332.3,27.5c0.5-0.2-0.2-1-0.5-0.5C331.5,27.3,331.9,27.7,332.3,27.5z"/>
		<path class="st0" d="M344.3,13.5c-0.2,0.3,0.2,0.8,0.5,0.5C345.3,13.8,344.7,13,344.3,13.5z"/>
		<path class="st0" d="M331.7,28.7c0.4,0.4,1-0.1,0.7-0.6C332.1,27.5,331.3,28.2,331.7,28.7z"/>
		<path class="st0" d="M332.8,27.5c-0.3,0.5,0.2,1.1,0.7,0.8C334.2,27.7,333.2,26.8,332.8,27.5z"/>
		<path class="st0" d="M332.8,29.5c0.4,0.5,1.2-0.1,0.9-0.7C333.4,28.2,332.4,29,332.8,29.5z"/>
		<path class="st0" d="M334.3,28.4c-0.5,0.4,0.1,1.2,0.7,0.8C335.5,28.7,334.9,27.8,334.3,28.4z"/>
		<path class="st0" d="M334,30.6c0.4,0.5,1.2-0.1,0.9-0.7C334.4,29.3,333.5,30,334,30.6z"/>
		<path class="st0" d="M342.8,15.1c-0.5-0.2-0.8,0.6-0.4,0.8C342.9,16,343.3,15.3,342.8,15.1z"/>
		<path class="st0" d="M343.5,14.9c0.5,0.2,0.8-0.6,0.3-0.8C343.3,13.9,343,14.6,343.5,14.9z"/>
		<path class="st0" d="M342.8,17c0.5,0.2,0.9-0.6,0.4-0.8C342.7,16,342.3,16.7,342.8,17z"/>
		<path class="st0" d="M344.2,15.7c0.3-0.5-0.6-0.8-0.8-0.3C343.2,16,344,16.2,344.2,15.7z"/>
		<path class="st0" d="M344.3,14.6c-0.2,0.5,0.5,0.7,0.7,0.3C345.2,14.4,344.5,14.2,344.3,14.6z"/>
		<path class="st0" d="M328.9,68.9c-0.4,0.3,0.2,0.8,0.4,0.4C329.5,69.1,329.2,68.7,328.9,68.9z"/>
		<path class="st0" d="M329.8,70.8c0.3-0.3-0.1-0.9-0.5-0.6C328.7,70.4,329.4,71.4,329.8,70.8z"/>
		<path class="st0" d="M331.2,71.4c0.7-0.3,0-1.3-0.6-0.8C330.2,70.9,330.7,71.8,331.2,71.4z"/>
		<path class="st0" d="M330.4,73c0.5,0.6,1.4-0.1,1.1-0.7C330.9,71.6,329.7,72.2,330.4,73z"/>
		<path class="st0" d="M332.1,71.3c-0.7,0.5,0,1.7,0.8,1.2C333.8,72,332.9,70.7,332.1,71.3z"/>
		<path class="st0" d="M331.8,74.2c0.5,0.7,1.7,0,1.3-0.8C332.7,72.5,331.3,73.4,331.8,74.2z"/>
		<path class="st0" d="M334.8,74c0.9-0.5,0-1.9-0.8-1.2C333.3,73.3,334,74.4,334.8,74z"/>
		<path class="st0" d="M333.4,75.8c0.5,0.7,1.7,0,1.3-0.8C334.1,74.1,332.8,74.9,333.4,75.8z"/>
		<path class="st0" d="M334.5,31.1c0.8,0.3,1.9-0.5,2.7-0.3c-0.3-0.2-0.6-0.4-0.7-0.8c-0.3-0.7-0.2-1.4-1-1.8
			c0.4,0.6-0.4,1.5,0.2,2.1C335.7,30.2,334.5,31,334.5,31.1z"/>
		<path class="st0" d="M344.8,61.1c-0.4,0.3,0,1.1,0.5,0.8C345.8,61.5,345.3,60.7,344.8,61.1z"/>
		<path class="st0" d="M346,60.2c-0.3-0.6-1.1,0-0.8,0.5C345.5,61.1,346.2,60.7,346,60.2z"/>
		<path class="st0" d="M346.4,61.5c0.6-0.2,0.1-0.9-0.4-0.7C345.7,61.1,346,61.7,346.4,61.5z"/>
		<path class="st0" d="M344.6,60.5c-0.3-0.6-1.1,0-0.8,0.5C344.1,61.4,344.8,61,344.6,60.5z"/>
		<path class="st0" d="M343.6,61.5c-0.4,0.3,0,1,0.5,0.8C344.7,62,344.1,61.2,343.6,61.5z"/>
		<path class="st0" d="M346.9,60.2c-0.2-0.4-0.8,0-0.5,0.3C346.6,60.8,347.1,60.5,346.9,60.2z"/>
		<path class="st0" d="M347.3,60.5c0.1,0.4,0.7,0,0.5-0.2C347.6,60.1,347.2,60.3,347.3,60.5z"/>
		<path class="st0" d="M324.8,45.4c-0.1,0.3,0.4,0.6,0.5,0.3C325.7,45.4,325,45,324.8,45.4z"/>
		<path class="st0" d="M325.3,46.8c0.4,0.2,0.7-0.4,0.4-0.7C325.3,45.9,324.8,46.6,325.3,46.8z"/>
		<path class="st0" d="M325.8,45.5c-0.2,0.5,0.5,0.9,0.8,0.5C326.9,45.4,326.1,44.9,325.8,45.5z"/>
		<path class="st0" d="M324.5,45.8c0.1-0.3-0.3-0.4-0.4-0.2C323.7,45.8,324.3,46.2,324.5,45.8z"/>
		<path class="st0" d="M327.7,47.5c0.5,0.3,0.9-0.4,0.5-0.8C327.6,46.4,327.1,47.2,327.7,47.5z"/>
		<path class="st0" d="M326.4,47.1c0.5,0.3,0.9-0.5,0.5-0.8C326.5,45.9,325.9,46.8,326.4,47.1z"/>
		<path class="st0" d="M327.2,45.8c-0.3,0.5,0.5,0.9,0.8,0.5C328.3,45.7,327.5,45.2,327.2,45.8z"/>
		<path class="st0" d="M324.8,26c0.3,0.1,0.5-0.3,0.3-0.5C324.7,25.3,324.4,25.9,324.8,26z"/>
		<path class="st0" d="M324.2,26c0.4-0.3-0.4-1-0.6-0.4C323.4,25.9,323.9,26.3,324.2,26z"/>
		<path class="st0" d="M322.3,28.4c0.5,0,0.7-0.8,0.2-0.9C321.9,27.4,321.8,28.2,322.3,28.4z"/>
		<path class="st0" d="M323.1,27.2c0.5,0.1,0.7-0.8,0.1-0.9C322.7,26.2,322.5,27,323.1,27.2z"/>
		<path class="st0" d="M322.9,29.3c0.6,0.1,0.7-0.7,0.2-0.9C322.5,28.5,322.3,29.2,322.9,29.3z"/>
		<path class="st0" d="M323.9,27.8c0.1-0.6-0.7-0.6-0.8-0.1C323,28.3,323.8,28.3,323.9,27.8z"/>
		<path class="st0" d="M323.8,26.7c0,0.5,0.6,0.6,0.7,0.1C324.6,26.3,323.9,26.2,323.8,26.7z"/>
		<path class="st0" d="M324.3,42.1c-0.1-0.1-0.2-0.3-0.4-0.4c-0.4-0.2-0.9-0.2-1.4-0.1c-0.7,0.1-1.2,0.4-1.7,0.7
			c-0.5,0.4-1.1,0.7-1.7,1c0.7,0.2,1.3,0.3,1.9,0.5c0.6,0.2,1.2,0.3,1.8,0.2c0.5-0.1,1-0.2,1.4-0.5c0.1-0.1,0.2-0.3,0.3-0.4
			c1.5,0.3,2.9,0.8,4.1,1.6c0.6,0.6,1.1,1.2,1.7,1.9c-1.1-0.2-1.1-1.3-2.2-1.5c0.4,0.4,0.1,1.4,0.8,1.5c-0.2,0-0.6,0.9-0.7,1.1
			c0.6-0.1,1-0.4,1.4-0.8c0.2-0.2,0.3-0.3,0.6-0.2c0.5,0.1,0.9,1,1.2,1.4c0.3,0.4,0.6,0.9,0.9,1.4c0.6,0.9,1.1,1.9,1.5,2.9
			c-0.3,6,0.7,11.7,2.2,17.5c-1.2-1.5-2.5-2.9-4.1-4c0,0,0,0,0,0c0.2-0.2,0.4-0.4,0.4-0.7c0-0.2-0.1-0.5-0.3-0.8
			c-0.4-0.5-1.2-0.9-1.9-1.1c-1-0.3-1.9-0.3-2.8-0.1c-1,0.1-2,0.2-3,0.3c0.8,0.6,1.5,1.3,2.3,2c0.7,0.6,1.4,1.1,2.4,1.5
			c0.7,0.3,1.6,0.4,2.2,0.2c0.3-0.1,0.5-0.2,0.6-0.4c2,1.5,3.7,3.4,4.9,5.6c0.4,1.3,0.8,2.7,1.3,4c-1.6-1.1-0.7-2.8-2.2-3.8
			c0.4,0.9-0.8,2.2,0.1,2.9c-0.3-0.1-1.5,0.9-1.8,1.1c0.9,0.3,1.8,0.2,2.6-0.2c0.4-0.2,0.7-0.2,1,0.1c0.6,0.6,0.6,2.1,0.8,2.9
			c0.1,0.9,0.3,1.8,0.3,2.7c0.2,1.9,0.3,3.8,0.2,5.7c0,0.5-0.2,1.2,0.2,1.6c0,0,0,0,0,0c-10.9,0-19.7,3.2-19.7,7.1h39.6
			c0-3.7-7.7-6.7-17.6-7.1c0.3-1.5,0.5-3,0.6-4.5c0.2-2.1,0.1-4.2-0.2-6.3c1.3-2.7,3.2-4.9,5.5-6.7c0.1,0.2,0.3,0.3,0.6,0.4
			c0.6,0.2,1.4,0,2.2-0.2c1-0.4,1.8-0.9,2.4-1.5c0.7-0.7,1.5-1.3,2.3-2c-1-0.1-2-0.2-3-0.3c-0.9-0.1-1.8-0.1-2.8,0.1
			c-0.8,0.2-1.5,0.6-1.9,1.1c-0.2,0.3-0.3,0.5-0.3,0.8c0,0.3,0.3,0.5,0.4,0.7c0,0,0,0,0,0c-2.3,1.7-4.2,3.8-5.6,6.3
			c-0.6-3.3-1.6-6.5-2.8-9.7c-0.2-0.4-0.3-0.8-0.5-1.3c0.3-0.7,0.7-1.4,1.1-2c0.3-0.5,0.6-0.9,0.9-1.4c0.3-0.4,0.7-1.2,1.2-1.4
			c0.3-0.1,0.4,0,0.6,0.2c0.4,0.5,0.8,0.8,1.4,0.8c-0.1-0.2-0.5-1.1-0.7-1.1c0.6-0.1,0.3-1.2,0.8-1.5c-1.1,0.2-1.1,1.3-2.2,1.5
			c0.2-0.2,0.4-0.4,0.6-0.6c1.6-1.4,3.5-2.3,5.6-2.7c0,0.1,0.1,0.3,0.3,0.4c0.3,0.3,0.8,0.4,1.4,0.5c0.7,0.1,1.3,0,1.8-0.2
			c0.6-0.2,1.3-0.4,1.9-0.5c-0.6-0.3-1.1-0.7-1.7-1c-0.5-0.3-1-0.6-1.7-0.7c-0.5-0.1-1.1-0.1-1.4,0.1c-0.2,0.1-0.3,0.2-0.4,0.4
			c-0.1,0.2,0,0.4,0.1,0.5c0,0,0,0,0,0c-1.5,0.3-2.9,0.8-4.2,1.5c2.9-3.3,5.3-7,7-11.2c1-2.5,1.8-10.1,1.8-10.1
			c-0.1,1-0.5,2-0.8,2.9c-0.4,1.4-0.9,2.8-1.4,4.2c-0.7,2.1-1.5,4.2-2.7,6.1c-1.2,2-2.7,3.7-4.3,5.3c-2.3,2.1-4.3,4.5-5.6,7.3
			c-0.8-2.7-1.3-5.5-1.6-8.4c1.3-3.2,3.3-5.9,6.1-7.9c0.1,0.2,0.3,0.3,0.6,0.4c0.6,0.2,1.4,0,2.2-0.2c1-0.4,1.7-0.9,2.4-1.5
			c0.7-0.7,1.5-1.3,2.3-2c-1-0.1-2-0.2-3-0.3c-0.9-0.1-1.8-0.1-2.8,0.1c-0.8,0.2-1.5,0.6-1.9,1.1c-0.2,0.3-0.3,0.5-0.3,0.8
			c0,0.3,0.3,0.5,0.4,0.7c0,0,0,0,0,0c-2.6,1.9-4.6,4.3-6.1,7.1c0-0.9,0-1.9,0-2.8c0.3-6.4,1.8-12.8,3.4-19c0.7-2.9,1.3-5.9,1.6-8.9
			c0.1-1.5,0.2-3.1,0.1-4.6c0-0.1,0-0.3,0-0.4c0-0.2,0-0.3,0-0.5c0.1-0.2,0.2-0.3,0.6-0.2c0.4,0.1,1,0.2,1.4,0c-0.4,0.2-1-0.5-1-0.8
			c0-0.1-0.1-1.4-0.1-1.4c-0.6,0.6-0.3,1.6-0.8,2.1c0.1-2.2,0.9-4.3,2.1-6.1c0.1,0.1,0.3,0.1,0.5,0.1c0.4,0,0.9-0.3,1.3-0.6
			c0.5-0.4,0.9-0.9,1.2-1.4c0.3-0.6,0.6-1.1,1-1.7c-0.7,0.2-1.3,0.3-1.9,0.4c-0.6,0.1-1.1,0.3-1.7,0.7c-0.4,0.3-0.8,0.7-1,1.1
			c-0.1,0.2-0.1,0.4,0,0.5c0.1,0.2,0.3,0.2,0.4,0.3c0,0,0,0,0,0c-1.1,1.6-1.8,3.3-2.2,5.2c-0.5-2.8-1.1-5.6-2.6-8.1
			c-0.3-0.4-0.7-1-0.8-1.6c0.7-0.5,1.8-0.4,2.3-1.4c-0.2,0.4-1.7,0.3-2.1,0.3c-0.6,0-0.6-1.1-1.1-1c-0.1,0.4,0,0.8,0.1,1.2
			c-1.8-2.2-4.1-4.2-6.8-5.1c4.8,2.4,8,6.9,9.4,11.9c-0.7-0.5-0.9-1.6-1.5-1.9c-0.1,0.1,0.1,1.3,0.1,1.3c0,0-0.7,0.5-0.7,0.5
			c0.7,0.2,1.1-0.6,1.7-0.1c0.5,0.5,0.7,1,0.8,1.7c0.4,2,0.5,4,0.5,6.1c-0.1,3.7-0.8,7.4-1.8,11c-0.4-1.4-1-2.8-1.9-4c0,0,0,0,0,0
			c0.2-0.1,0.3-0.2,0.4-0.3c0.1-0.1,0.1-0.3,0-0.5c-0.1-0.4-0.5-0.8-1-1.1c-0.6-0.4-1.2-0.6-1.7-0.7c-0.6-0.1-1.3-0.3-1.9-0.4
			c0.4,0.6,0.7,1.1,1,1.7c0.3,0.5,0.6,1,1.2,1.4c0.4,0.3,0.9,0.6,1.3,0.6c0.2,0,0.4,0,0.5-0.1c0.9,1.3,1.5,2.8,1.9,4.4
			c0,0.4-0.2,0.9-0.3,1.2c-0.3,1.1-0.6,2.1-0.8,3.2c-1.1,4.3-2,8.6-2.6,13c-1.3-2.7-3.3-5-5.5-7.1c-1.7-1.6-3.1-3.3-4.3-5.3
			c-1.2-1.9-2-4-2.7-6.1c0-0.1-0.1-0.2-0.1-0.3c0.1,0,0.2-0.1,0.4-0.1c0.4,0,1,0,1.4-0.3c-0.3,0.3-1.1-0.2-1.2-0.5
			c0-0.1-0.4-1.3-0.4-1.3c-0.4,0.6,0,1.4-0.2,1.9c-0.4-1.2-0.8-2.4-1.2-3.6c-0.3-0.9-0.7-1.9-0.8-2.9c0,0,0.8,7.6,1.8,10.1
			c1.6,3.9,3.8,7.4,6.4,10.5c-1.1-0.5-2.2-0.9-3.4-1.1c0,0,0,0,0,0C324.3,42.5,324.3,42.3,324.3,42.1z"/>
	</g>
</g>
</svg>
