<?xml version="1.0" encoding="utf-8"?>
<!-- Generator: Adobe Illustrator 22.1.0, SVG Export Plug-In . SVG Version: 6.00 Build 0)  -->
<svg version="1.1" id="Layer_1" xmlns="http://www.w3.org/2000/svg" xmlns:xlink="http://www.w3.org/1999/xlink" x="0px" y="0px"
	 viewBox="0 0 419.1 81.2" style="enable-background:new 0 0 419.1 81.2;" xml:space="preserve">
<style type="text/css">
	.st0{fill:#F5F5F5;}
</style>
<title>skyline</title>
<g>
	<path class="st0" d="M419.1,56.4c-4,1.6-7.4,5.6-8.6,8.3c-0.3-1.5-1-3.2-2.2-4.9c-0.9,2.1-2.3,3.9-3.7,5.9c0-2,0.6-4,0.5-5.8
		c1.9-9.1,6-14.8,9.3-25.1c-4.2,4.6-7.1,9.3-10,13.5c0-0.1-0.4-6.1-0.4-6.3c-0.2,0.4-1.8,7.9-2,8.3c-1.7,2.5-1.8,3.5-3.3,5.8
		c1.1-4.7,1.3-10-0.1-16.1c-3.6,11-8.5,16.8-12.6,22.5c-0.3-5.3-0.7-9.9-0.4-14.7c-2.9,5.9-4.8,11.2-5.9,15.7
		c-0.8-5.5-2.8-11.8-7-17.4c0.3,6.9-0.8,13.5-1,22.1c-0.4-1.7-0.8-3.4-1.2-5c0.2-6.2-0.2-13.4-2.3-18.7c-0.2,3.3-1.2,6.6-2.4,10.2
		c-1.3-2.9-2.5-5.5-3.3-8.3c-3.1,6.6-1.1,13.5,0.5,17.1c-0.3,1.1-0.6,2.3-0.9,3.5c-1.1-6.5-2.9-11.5-3.3-16.8
		c-1.8,2.1-3.1,4.3-4,6.4c-0.8-3.3-1.6-6.4-1.9-9.6c-1.1,1.6-1.9,3.2-2.6,4.7c-0.1-3.9-0.2-7.5,0.2-11.2c-2.8,3.3-4.8,6.8-6.2,10.4
		c-0.1-2.7-0.5-5.3-1.2-7.6c-0.4,2.7-1.4,5.5-2.6,8.4c2-13.4,2.2-29.4,5.2-51.9c-10.9,19.1-12.5,35.2-14,49.1
		c-1.6-8.9-3.3-16.4-4.3-24.3c-3.5,15.7-0.4,34.9,1.3,43.2c-0.4,1.4-0.8,2.7-1.4,4c0.7-6.5,0.5-16.9-4.3-25.4
		c0.5,5.3-0.3,9.7-1.3,14.5c-1.4-12.4-2.6-22.3-9.6-32.3c3,10.2,2.7,24.1,2.7,34.6c-1-4.8-2-8.9-2.5-13.3
		c-4.6,9.2-2.9,20.1-1.8,24.9h-2.9c1.3-3.9,3.2-13.4-0.7-21.5c0,3.4-0.8,6.3-1.8,9.3c-0.3-1.7-0.6-3.4-0.7-5.1
		c-1.6,2.1-2.7,4.2-3.4,6.3c-1.1-3.9-2.1-7.3-2.6-10.9c-1.7,2.3-2.8,4.6-3.5,7c-1.5-4.8-3.4-9.6-6-13.3c1.2,5.5,0.1,11.6,0,18.5
		c-0.7-1.3-1.4-2.6-1.9-3.9c-0.5,0.9-0.9,1.7-1.1,2.6c-0.7-2.3-1.3-4.5-1.5-6.7c-3.3,3-4.9,6.1-5.6,9c-0.7-2.2-1.3-4.3-1.6-6.4
		c-1,1.2-1.7,2.5-2.2,3.8c0.7-6,0.8-12.7-0.7-17.8c-0.6,4.1-2.5,8.2-4.5,12.8c1.2-8.6,0.8-18.7-0.1-31.5
		c-3.8,10.3-5.4,19.5-6.9,27.7c-0.8-3.8-1.5-7.3-1.9-11c-3.6,8.9-2.8,19.2-1.7,25.8c-0.5,1.5-1.2,3-1.9,4.4
		c0.4-7.8-0.5-24.3-7.3-36.7c2.1,12.2-0.4,21.5-0.2,35.5c-1.4-11.1-1-18.9-2.4-27c-2.3,5.9-3.4,12.7-3.8,18.5
		c-0.3-1.3-0.6-2.6-0.7-3.9c-1.2,1.5-2.1,3.1-2.6,4.6c-0.7-3.2-2.1-6.5-4.5-9.5c0.6,3.7,0.1,6.8-0.7,10c-0.2-1.2-0.4-2.3-0.5-3.5
		c-0.9,1-1.6,1.9-2.2,2.9c0-4.7-0.5-9.8-2.3-13.7c-0.3,4.5-2.8,9.2-4.8,14.6c-0.8-3.3-1.5-6.3-1.9-9.4c-2.8,4.3-3.6,9.1-3.5,13.1
		c-0.6-3.1-1.5-5.7-1.6-8.4c-1,1-1.7,2.1-2.3,3.1c2.1-11.6,0.2-24.6,11.7-47.3c-9.9,13.1-14.3,26.1-17.5,37.5
		c-0.3-4.4-0.5-8.6-0.4-12.8c-4.4,6.4-6.4,13.6-7.2,20c-0.3-12,1.1-21.3-0.5-31.1c-3.1,10.3-5.4,22.2-6.3,31.6
		c-0.7-3.1-1.7-6.1-3.4-8.6c0.3,4.4-2.3,9.1-3.7,14.7c-0.5-3.7-1.3-6.9-1.9-9.9c1-2.4,2.3-4.8,4.2-7.2c-1.8,1-3.4,2.2-4.9,3.4
		c-0.2-1.4-0.4-2.7-0.5-4.1c-1.9,2.7-3.1,5.5-3.9,8.2c-1.2,1.3-2.2,2.5-3.2,3.8c-0.5-2.5-1-4.9-1-7.4c-2.4,2.4-4,4.8-5,7.1
		c0.1-5.7-0.5-11.8-2.3-16.5c-0.3,4.8-2.4,9.9-4.3,15.6c-0.9-4.1-1.7-7.8-2-11.7c-3.3,4.6-4.6,9.6-4.9,14c-0.8-3.6-1.7-6.8-1.9-10.2
		c-1.7,2.1-2.8,4.2-3.7,6.4c-0.2-4.7-0.8-9.4-2.3-13.2c-0.3,4.9-2.5,10.1-4.4,16c-0.8-1.9-1.6-3.7-2.1-5.6c-0.5,1.1-0.9,2.2-1.1,3.3
		c-0.7-3-1.3-5.8-1.5-8.6c-3.3,3.8-4.9,7.9-5.6,11.6c-0.7-2.9-1.3-5.5-1.6-8.2c-0.7,1.2-1.3,2.4-1.7,3.7c0.2-4.4,0-8.9-1.1-12.6
		c-0.6,4.1-2.5,8.2-4.5,12.8c1.2-8.6,0.8-18.7-0.1-31.5c-3.4,9.1-5,17.3-6.4,24.8c-1-4.8-1.9-9.1-2.4-13.6
		c-4.3,10.7-2.3,23.5-1.1,29.3c-0.5,1.6-1,3.1-1.7,4.5c0.4-6.5-0.3-15.4-4.6-23c0.5,5.2-0.3,9.7-1.3,14.4c-1.2-12.2-1.3-21.9-3-31.8
		c-3.1,10.1-4.3,21.9-4.4,31.4c-0.8-3.7-1.5-7.1-1.9-10.6c-3.8,7.6-3.3,16.4-2.4,22L96,78.5c1-4.7,2.3-15.8-0.8-22.2
		c0,3.4-0.8,6.3-1.8,9.3c-0.3-1.7-0.6-3.4-0.7-5.1c-1.3,1.6-2.2,3.3-2.9,4.9c0.2-6-0.3-12.7-2.3-17.7c-0.2,3.9-1.6,8-3.2,12.4
		c-0.6-2.9-1.1-5.6-1.3-8.5c-3.3,4.6-4.6,9.6-4.9,14c-0.8-3.6-1.7-6.8-1.9-10.2c-2.9,3.6-4.8,14.3-5.4,17.8
		c-0.2-0.4,0.1-7.8-0.1-8.3c3.7-9.8,5.3-21.5,6.8-37.3C69.1,43.5,64,63.4,59,74.5c2.7-8.4,7.2-26.6,1.7-40.8
		c-1.4,13.4-5,20.8-7.9,28.2c-1.3-6.2-2.7-11.4-3.3-17c-1.7,7.3-2.4,13.8-2.7,19.2c-1.9-6.3-5.2-13.3-10.5-19.2
		c1.7,8,1.9,15.8,3.5,25.9c-2.3-6.3-4.6-11.4-6.1-16.5c-1,5.7-0.3,18.6,0.1,23.1c-0.8-3-2.7-13.9-4.3-17.3c-0.5,3-1.3,6.2-2.2,9.7
		c-1.1-6.8-3.4-15.3-8-22.2c1.1,7.3,1.1,14.4,1.9,23.4c-1.6-4.8-4.5-10.4-10.1-14.9c1,4.3,1.2,8.6,1.7,13.6c-3.4-1.9-7.6-3.5-12.8-4
		c4.8,4,14.1,15.6,14.1,15.6h404.4C418.5,81.2,415,68.7,419.1,56.4z M410,70.5c0,0.3-1,7.9-1,8.2l-0.9-3.9
		C408.3,74.6,409.7,70.9,410,70.5z M404.3,74.4c0.4,0.2,0.9,0.3,1.3,0.4l-1.8,3C403.8,77.7,404.3,74.5,404.3,74.4z M396.8,70.7
		c-0.2,1.6-1.2,5.9-1.1,7l-4.7-0.8C392.6,75.5,395.4,72.1,396.8,70.7z M360.8,72.5c0,0.1,0.2,2.1,0.2,2.2c0.1,0,0.2,0.1,0.4,0.1
		l-6.8,3.2C355.7,77.9,359.8,72.7,360.8,72.5z M274.9,74.8l-2.6,2.9c0.3-1.2,1.5-5.7,1.9-7.4C274.2,72,274.6,73.6,274.9,74.8z
		 M214.1,74.8l-2.8,3c0.6-1.1,2.2-5.1,2.6-6.2C213.8,72.8,213.9,73.9,214.1,74.8z M181.5,74.8l-2.7,3.7c0.2-0.4,2.3-4.5,2.4-4.9
		C181.3,74.1,181.4,74.5,181.5,74.8z M131.5,70.2c0.2,1.8,0.4,3.4,0.7,4.7l-2.7,3.4C130,76.9,131.2,71.9,131.5,70.2z"/>
	<path class="st0" d="M419.1,56.4c-4,1.6-7.4,5.6-8.6,8.3c-0.3-1.5-1-3.2-2.2-4.9c-0.9,2.1-2.3,3.9-3.7,5.9c0-2,0.6-4,0.5-5.8
		c1.9-9.1,6-14.8,9.3-25.1c-4.2,4.6-7.1,9.3-10,13.5c0-0.1-0.4-6.1-0.4-6.3c-0.2,0.4-1.8,7.9-2,8.3c-1.7,2.5-1.8,3.5-3.3,5.8
		c1.1-4.7,1.3-10-0.1-16.1c-3.6,11-8.5,16.8-12.6,22.5c-0.3-5.3-0.7-9.9-0.4-14.7c-2.9,5.9-4.8,11.2-5.9,15.7
		c-0.8-5.5-2.8-11.8-7-17.4c0.3,6.9-0.8,13.5-1,22.1c-0.4-1.7-0.8-3.4-1.2-5c0.2-6.2-0.2-13.4-2.3-18.7c-0.2,3.3-1.2,6.6-2.4,10.2
		c-1.3-2.9-2.5-5.5-3.3-8.3c-3.1,6.6-1.1,13.5,0.5,17.1c-0.3,1.1-0.6,2.3-0.9,3.5c-1.1-6.5-2.9-11.5-3.3-16.8
		c-1.8,2.1-3.1,4.3-4,6.4c-0.8-3.3-1.6-6.4-1.9-9.6c-1.1,1.6-1.9,3.2-2.6,4.7c-0.1-3.9-0.2-7.5,0.2-11.2c-2.8,3.3-4.8,6.8-6.2,10.4
		c-0.1-2.7-0.5-5.3-1.2-7.6c-0.4,2.7-1.4,5.5-2.6,8.4c2-13.4,2.2-29.4,5.2-51.9c-10.9,19.1-12.5,35.2-14,49.1
		c-1.6-8.9-3.3-16.4-4.3-24.3c-3.5,15.7-0.4,34.9,1.3,43.2c-0.4,1.4-0.8,2.7-1.4,4c0.7-6.5,0.5-16.9-4.3-25.4
		c0.5,5.3-0.3,9.7-1.3,14.5c-1.4-12.4-2.6-22.3-9.6-32.3c3,10.2,2.7,24.1,2.7,34.6c-1-4.8-2-8.9-2.5-13.3
		c-4.6,9.2-2.9,20.1-1.8,24.9h-2.9c1.3-3.9,3.2-13.4-0.7-21.5c0,3.4-0.8,6.3-1.8,9.3c-0.3-1.7-0.6-3.4-0.7-5.1
		c-1.6,2.1-2.7,4.2-3.4,6.3c-1.1-3.9-2.1-7.3-2.6-10.9c-1.7,2.3-2.8,4.6-3.5,7c-1.5-4.8-3.4-9.6-6-13.3c1.2,5.5,0.1,11.6,0,18.5
		c-0.7-1.3-1.4-2.6-1.9-3.9c-0.5,0.9-0.9,1.7-1.1,2.6c-0.7-2.3-1.3-4.5-1.5-6.7c-3.3,3-4.9,6.1-5.6,9c-0.7-2.2-1.3-4.3-1.6-6.4
		c-1,1.2-1.7,2.5-2.2,3.8c0.7-6,0.8-12.7-0.7-17.8c-0.6,4.1-2.5,8.2-4.5,12.8c1.2-8.6,0.8-18.7-0.1-31.5
		c-3.8,10.3-5.4,19.5-6.9,27.7c-0.8-3.8-1.5-7.3-1.9-11c-3.6,8.9-2.8,19.2-1.7,25.8c-0.5,1.5-1.2,3-1.9,4.4
		c0.4-7.8-0.5-24.3-7.3-36.7c2.1,12.2-0.4,21.5-0.2,35.5c-1.4-11.1-1-18.9-2.4-27c-2.3,5.9-3.4,12.7-3.8,18.5
		c-0.3-1.3-0.6-2.6-0.7-3.9c-1.2,1.5-2.1,3.1-2.6,4.6c-0.7-3.2-2.1-6.5-4.5-9.5c0.6,3.7,0.1,6.8-0.7,10c-0.2-1.2-0.4-2.3-0.5-3.5
		c-0.9,1-1.6,1.9-2.2,2.9c0-4.7-0.5-9.8-2.3-13.7c-0.3,4.5-2.8,9.2-4.8,14.6c-0.8-3.3-1.5-6.3-1.9-9.4c-2.8,4.3-3.6,9.1-3.5,13.1
		c-0.6-3.1-1.5-5.7-1.6-8.4c-1,1-1.7,2.1-2.3,3.1c2.1-11.6,0.2-24.6,11.7-47.3c-9.9,13.1-14.3,26.1-17.5,37.5
		c-0.3-4.4-0.5-8.6-0.4-12.8c-4.4,6.4-6.4,13.6-7.2,20c-0.3-12,1.1-21.3-0.5-31.1c-3.1,10.3-5.4,22.2-6.3,31.6
		c-0.7-3.1-1.7-6.1-3.4-8.6c0.3,4.4-2.3,9.1-3.7,14.7c-0.5-3.7-1.3-6.9-1.9-9.9c1-2.4,2.3-4.8,4.2-7.2c-1.8,1-3.4,2.2-4.9,3.4
		c-0.2-1.4-0.4-2.7-0.5-4.1c-1.9,2.7-3.1,5.5-3.9,8.2c-1.2,1.3-2.2,2.5-3.2,3.8c-0.5-2.5-1-4.9-1-7.4c-2.4,2.4-4,4.8-5,7.1
		c0.1-5.7-0.5-11.8-2.3-16.5c-0.3,4.8-2.4,9.9-4.3,15.6c-0.9-4.1-1.7-7.8-2-11.7c-3.3,4.6-4.6,9.6-4.9,14c-0.8-3.6-1.7-6.8-1.9-10.2
		c-1.7,2.1-2.8,4.2-3.7,6.4c-0.2-4.7-0.8-9.4-2.3-13.2c-0.3,4.9-2.5,10.1-4.4,16c-0.8-1.9-1.6-3.7-2.1-5.6c-0.5,1.1-0.9,2.2-1.1,3.3
		c-0.7-3-1.3-5.8-1.5-8.6c-3.3,3.8-4.9,7.9-5.6,11.6c-0.7-2.9-1.3-5.5-1.6-8.2c-0.7,1.2-1.3,2.4-1.7,3.7c0.2-4.4,0-8.9-1.1-12.6
		c-0.6,4.1-2.5,8.2-4.5,12.8c1.2-8.6,0.8-18.7-0.1-31.5c-3.4,9.1-5,17.3-6.4,24.8c-1-4.8-1.9-9.1-2.4-13.6
		c-4.3,10.7-2.3,23.5-1.1,29.3c-0.5,1.6-1,3.1-1.7,4.5c0.4-6.5-0.3-15.4-4.6-23c0.5,5.2-0.3,9.7-1.3,14.4c-1.2-12.2-1.3-21.9-3-31.8
		c-3.1,10.1-4.3,21.9-4.4,31.4c-0.8-3.7-1.5-7.1-1.9-10.6c-3.8,7.6-3.3,16.4-2.4,22L96,78.5c1-4.7,2.3-15.8-0.8-22.2
		c0,3.4-0.8,6.3-1.8,9.3c-0.3-1.7-0.6-3.4-0.7-5.1c-1.3,1.6-2.2,3.3-2.9,4.9c0.2-6-0.3-12.7-2.3-17.7c-0.2,3.9-1.6,8-3.2,12.4
		c-0.6-2.9-1.1-5.6-1.3-8.5c-3.3,4.6-4.6,9.6-4.9,14c-0.8-3.6-1.7-6.8-1.9-10.2c-2.9,3.6-4.8,14.3-5.4,17.8
		c-0.2-0.4,0.1-7.8-0.1-8.3c3.7-9.8,5.3-21.5,6.8-37.3C69.1,43.5,64,63.4,59,74.5c2.7-8.4,7.2-26.6,1.7-40.8
		c-1.4,13.4-5,20.8-7.9,28.2c-1.3-6.2-2.7-11.4-3.3-17c-1.7,7.3-2.4,13.8-2.7,19.2c-1.9-6.3-5.2-13.3-10.5-19.2
		c1.7,8,1.9,15.8,3.5,25.9c-2.3-6.3-4.6-11.4-6.1-16.5c-1,5.7-0.3,18.6,0.1,23.1c-0.8-3-2.7-13.9-4.3-17.3c-0.5,3-1.3,6.2-2.2,9.7
		c-1.1-6.8-3.4-15.3-8-22.2c1.1,7.3,1.1,14.4,1.9,23.4c-1.6-4.8-4.5-10.4-10.1-14.9c1,4.3,1.2,8.6,1.7,13.6c-3.4-1.9-7.6-3.5-12.8-4
		c4.8,4,14.1,15.6,14.1,15.6h404.4C418.5,81.2,415,68.7,419.1,56.4z M410,70.5c0,0.3-1,7.9-1,8.2l-0.9-3.9
		C408.3,74.6,409.7,70.9,410,70.5z M404.3,74.4c0.4,0.2,0.9,0.3,1.3,0.4l-1.8,3C403.8,77.7,404.3,74.5,404.3,74.4z M396.8,70.7
		c-0.2,1.6-1.2,5.9-1.1,7l-4.7-0.8C392.6,75.5,395.4,72.1,396.8,70.7z M360.8,72.5c0,0.1,0.2,2.1,0.2,2.2c0.1,0,0.2,0.1,0.4,0.1
		l-6.8,3.2C355.7,77.9,359.8,72.7,360.8,72.5z M274.9,74.8l-2.6,2.9c0.3-1.2,1.5-5.7,1.9-7.4C274.2,72,274.6,73.6,274.9,74.8z
		 M214.1,74.8l-2.8,3c0.6-1.1,2.2-5.1,2.6-6.2C213.8,72.8,213.9,73.9,214.1,74.8z M181.5,74.8l-2.7,3.7c0.2-0.4,2.3-4.5,2.4-4.9
		C181.3,74.1,181.4,74.5,181.5,74.8z M131.5,70.2c0.2,1.8,0.4,3.4,0.7,4.7l-2.7,3.4C130,76.9,131.2,71.9,131.5,70.2z"/>
	<path class="st0" d="M419.1,56.4c-4,1.6-7.4,5.6-8.6,8.3c-0.3-1.5-1-3.2-2.2-4.9c-0.9,2.1-2.3,3.9-3.7,5.9c0-2,0.6-4,0.5-5.8
		c1.9-9.1,6-14.8,9.3-25.1c-4.2,4.6-7.1,9.3-10,13.5c0-0.1-0.4-6.1-0.4-6.3c-0.2,0.4-1.8,7.9-2,8.3c-1.7,2.5-1.8,3.5-3.3,5.8
		c1.1-4.7,1.3-10-0.1-16.1c-3.6,11-8.5,16.8-12.6,22.5c-0.3-5.3-0.7-9.9-0.4-14.7c-2.9,5.9-4.8,11.2-5.9,15.7
		c-0.8-5.5-2.8-11.8-7-17.4c0.3,6.9-0.8,13.5-1,22.1c-0.4-1.7-0.8-3.4-1.2-5c0.2-6.2-0.2-13.4-2.3-18.7c-0.2,3.3-1.2,6.6-2.4,10.2
		c-1.3-2.9-2.5-5.5-3.3-8.3c-3.1,6.6-1.1,13.5,0.5,17.1c-0.3,1.1-0.6,2.3-0.9,3.5c-1.1-6.5-2.9-11.5-3.3-16.8
		c-1.8,2.1-3.1,4.3-4,6.4c-0.8-3.3-1.6-6.4-1.9-9.6c-1.1,1.6-1.9,3.2-2.6,4.7c-0.1-3.9-0.2-7.5,0.2-11.2c-2.8,3.3-4.8,6.8-6.2,10.4
		c-0.1-2.7-0.5-5.3-1.2-7.6c-0.4,2.7-1.4,5.5-2.6,8.4c2-13.4,2.2-29.4,5.2-51.9c-10.9,19.1-12.5,35.2-14,49.1
		c-1.6-8.9-3.3-16.4-4.3-24.3c-3.5,15.7-0.4,34.9,1.3,43.2c-0.4,1.4-0.8,2.7-1.4,4c0.7-6.5,0.5-16.9-4.3-25.4
		c0.5,5.3-0.3,9.7-1.3,14.5c-1.4-12.4-2.6-22.3-9.6-32.3c3,10.2,2.7,24.1,2.7,34.6c-1-4.8-2-8.9-2.5-13.3
		c-4.6,9.2-2.9,20.1-1.8,24.9h-2.9c1.3-3.9,3.2-13.4-0.7-21.5c0,3.4-0.8,6.3-1.8,9.3c-0.3-1.7-0.6-3.4-0.7-5.1
		c-1.6,2.1-2.7,4.2-3.4,6.3c-1.1-3.9-2.1-7.3-2.6-10.9c-1.7,2.3-2.8,4.6-3.5,7c-1.5-4.8-3.4-9.6-6-13.3c1.2,5.5,0.1,11.6,0,18.5
		c-0.7-1.3-1.4-2.6-1.9-3.9c-0.5,0.9-0.9,1.7-1.1,2.6c-0.7-2.3-1.3-4.5-1.5-6.7c-3.3,3-4.9,6.1-5.6,9c-0.7-2.2-1.3-4.3-1.6-6.4
		c-1,1.2-1.7,2.5-2.2,3.8c0.7-6,0.8-12.7-0.7-17.8c-0.6,4.1-2.5,8.2-4.5,12.8c1.2-8.6,0.8-18.7-0.1-31.5
		c-3.8,10.3-5.4,19.5-6.9,27.7c-0.8-3.8-1.5-7.3-1.9-11c-3.6,8.9-2.8,19.2-1.7,25.8c-0.5,1.5-1.2,3-1.9,4.4
		c0.4-7.8-0.5-24.3-7.3-36.7c2.1,12.2-0.4,21.5-0.2,35.5c-1.4-11.1-1-18.9-2.4-27c-2.3,5.9-3.4,12.7-3.8,18.5
		c-0.3-1.3-0.6-2.6-0.7-3.9c-1.2,1.5-2.1,3.1-2.6,4.6c-0.7-3.2-2.1-6.5-4.5-9.5c0.6,3.7,0.1,6.8-0.7,10c-0.2-1.2-0.4-2.3-0.5-3.5
		c-0.9,1-1.6,1.9-2.2,2.9c0-4.7-0.5-9.8-2.3-13.7c-0.3,4.5-2.8,9.2-4.8,14.6c-0.8-3.3-1.5-6.3-1.9-9.4c-2.8,4.3-3.6,9.1-3.5,13.1
		c-0.6-3.1-1.5-5.7-1.6-8.4c-1,1-1.7,2.1-2.3,3.1c2.1-11.6,0.2-24.6,11.7-47.3c-9.9,13.1-14.3,26.1-17.5,37.5
		c-0.3-4.4-0.5-8.6-0.4-12.8c-4.4,6.4-6.4,13.6-7.2,20c-0.3-12,1.1-21.3-0.5-31.1c-3.1,10.3-5.4,22.2-6.3,31.6
		c-0.7-3.1-1.7-6.1-3.4-8.6c0.3,4.4-2.3,9.1-3.7,14.7c-0.5-3.7-1.3-6.9-1.9-9.9c1-2.4,2.3-4.8,4.2-7.2c-1.8,1-3.4,2.2-4.9,3.4
		c-0.2-1.4-0.4-2.7-0.5-4.1c-1.9,2.7-3.1,5.5-3.9,8.2c-1.2,1.3-2.2,2.5-3.2,3.8c-0.5-2.5-1-4.9-1-7.4c-2.4,2.4-4,4.8-5,7.1
		c0.1-5.7-0.5-11.8-2.3-16.5c-0.3,4.8-2.4,9.9-4.3,15.6c-0.9-4.1-1.7-7.8-2-11.7c-3.3,4.6-4.6,9.6-4.9,14c-0.8-3.6-1.7-6.8-1.9-10.2
		c-1.7,2.1-2.8,4.2-3.7,6.4c-0.2-4.7-0.8-9.4-2.3-13.2c-0.3,4.9-2.5,10.1-4.4,16c-0.8-1.9-1.6-3.7-2.1-5.6c-0.5,1.1-0.9,2.2-1.1,3.3
		c-0.7-3-1.3-5.8-1.5-8.6c-3.3,3.8-4.9,7.9-5.6,11.6c-0.7-2.9-1.3-5.5-1.6-8.2c-0.7,1.2-1.3,2.4-1.7,3.7c0.2-4.4,0-8.9-1.1-12.6
		c-0.6,4.1-2.5,8.2-4.5,12.8c1.2-8.6,0.8-18.7-0.1-31.5c-3.4,9.1-5,17.3-6.4,24.8c-1-4.8-1.9-9.1-2.4-13.6
		c-4.3,10.7-2.3,23.5-1.1,29.3c-0.5,1.6-1,3.1-1.7,4.5c0.4-6.5-0.3-15.4-4.6-23c0.5,5.2-0.3,9.7-1.3,14.4c-1.2-12.2-1.3-21.9-3-31.8
		c-3.1,10.1-4.3,21.9-4.4,31.4c-0.8-3.7-1.5-7.1-1.9-10.6c-3.8,7.6-3.3,16.4-2.4,22L96,78.5c1-4.7,2.3-15.8-0.8-22.2
		c0,3.4-0.8,6.3-1.8,9.3c-0.3-1.7-0.6-3.4-0.7-5.1c-1.3,1.6-2.2,3.3-2.9,4.9c0.2-6-0.3-12.7-2.3-17.7c-0.2,3.9-1.6,8-3.2,12.4
		c-0.6-2.9-1.1-5.6-1.3-8.5c-3.3,4.6-4.6,9.6-4.9,14c-0.8-3.6-1.7-6.8-1.9-10.2c-2.9,3.6-4.8,14.3-5.4,17.8
		c-0.2-0.4,0.1-7.8-0.1-8.3c3.7-9.8,5.3-21.5,6.8-37.3C69.1,43.5,64,63.4,59,74.5c2.7-8.4,7.2-26.6,1.7-40.8
		c-1.4,13.4-5,20.8-7.9,28.2c-1.3-6.2-2.7-11.4-3.3-17c-1.7,7.3-2.4,13.8-2.7,19.2c-1.9-6.3-5.2-13.3-10.5-19.2
		c1.7,8,1.9,15.8,3.5,25.9c-2.3-6.3-4.6-11.4-6.1-16.5c-1,5.7-0.3,18.6,0.1,23.1c-0.8-3-2.7-13.9-4.3-17.3c-0.5,3-1.3,6.2-2.2,9.7
		c-1.1-6.8-3.4-15.3-8-22.2c1.1,7.3,1.1,14.4,1.9,23.4c-1.6-4.8-4.5-10.4-10.1-14.9c1,4.3,1.2,8.6,1.7,13.6c-3.4-1.9-7.6-3.5-12.8-4
		c4.8,4,14.1,15.6,14.1,15.6h404.4C418.5,81.2,415,68.7,419.1,56.4z M410,70.5c0,0.3-1,7.9-1,8.2l-0.9-3.9
		C408.3,74.6,409.7,70.9,410,70.5z M404.3,74.4c0.4,0.2,0.9,0.3,1.3,0.4l-1.8,3C403.8,77.7,404.3,74.5,404.3,74.4z M396.8,70.7
		c-0.2,1.6-1.2,5.9-1.1,7l-4.7-0.8C392.6,75.5,395.4,72.1,396.8,70.7z M360.8,72.5c0,0.1,0.2,2.1,0.2,2.2c0.1,0,0.2,0.1,0.4,0.1
		l-6.8,3.2C355.7,77.9,359.8,72.7,360.8,72.5z M274.9,74.8l-2.6,2.9c0.3-1.2,1.5-5.7,1.9-7.4C274.2,72,274.6,73.6,274.9,74.8z
		 M214.1,74.8l-2.8,3c0.6-1.1,2.2-5.1,2.6-6.2C213.8,72.8,213.9,73.9,214.1,74.8z M181.5,74.8l-2.7,3.7c0.2-0.4,2.3-4.5,2.4-4.9
		C181.3,74.1,181.4,74.5,181.5,74.8z M131.5,70.2c0.2,1.8,0.4,3.4,0.7,4.7l-2.7,3.4C130,76.9,131.2,71.9,131.5,70.2z"/>
	<path class="st0" d="M419.1,56.4c-4,1.6-7.4,5.6-8.6,8.3c-0.3-1.5-1-3.2-2.2-4.9c-0.9,2.1-2.3,3.9-3.7,5.9c0-2,0.6-4,0.5-5.8
		c1.9-9.1,6-14.8,9.3-25.1c-4.2,4.6-7.1,9.3-10,13.5c0-0.1-0.4-6.1-0.4-6.3c-0.2,0.4-1.8,7.9-2,8.3c-1.7,2.5-1.8,3.5-3.3,5.8
		c1.1-4.7,1.3-10-0.1-16.1c-3.6,11-8.5,16.8-12.6,22.5c-0.3-5.3-0.7-9.9-0.4-14.7c-2.9,5.9-4.8,11.2-5.9,15.7
		c-0.8-5.5-2.8-11.8-7-17.4c0.3,6.9-0.8,13.5-1,22.1c-0.4-1.7-0.8-3.4-1.2-5c0.2-6.2-0.2-13.4-2.3-18.7c-0.2,3.3-1.2,6.6-2.4,10.2
		c-1.3-2.9-2.5-5.5-3.3-8.3c-3.1,6.6-1.1,13.5,0.5,17.1c-0.3,1.1-0.6,2.3-0.9,3.5c-1.1-6.5-2.9-11.5-3.3-16.8
		c-1.8,2.1-3.1,4.3-4,6.4c-0.8-3.3-1.6-6.4-1.9-9.6c-1.1,1.6-1.9,3.2-2.6,4.7c-0.1-3.9-0.2-7.5,0.2-11.2c-2.8,3.3-4.8,6.8-6.2,10.4
		c-0.1-2.7-0.5-5.3-1.2-7.6c-0.4,2.7-1.4,5.5-2.6,8.4c2-13.4,2.2-29.4,5.2-51.9c-10.9,19.1-12.5,35.2-14,49.1
		c-1.6-8.9-3.3-16.4-4.3-24.3c-3.5,15.7-0.4,34.9,1.3,43.2c-0.4,1.4-0.8,2.7-1.4,4c0.7-6.5,0.5-16.9-4.3-25.4
		c0.5,5.3-0.3,9.7-1.3,14.5c-1.4-12.4-2.6-22.3-9.6-32.3c3,10.2,2.7,24.1,2.7,34.6c-1-4.8-2-8.9-2.5-13.3
		c-4.6,9.2-2.9,20.1-1.8,24.9h-2.9c1.3-3.9,3.2-13.4-0.7-21.5c0,3.4-0.8,6.3-1.8,9.3c-0.3-1.7-0.6-3.4-0.7-5.1
		c-1.6,2.1-2.7,4.2-3.4,6.3c-1.1-3.9-2.1-7.3-2.6-10.9c-1.7,2.3-2.8,4.6-3.5,7c-1.5-4.8-3.4-9.6-6-13.3c1.2,5.5,0.1,11.6,0,18.5
		c-0.7-1.3-1.4-2.6-1.9-3.9c-0.5,0.9-0.9,1.7-1.1,2.6c-0.7-2.3-1.3-4.5-1.5-6.7c-3.3,3-4.9,6.1-5.6,9c-0.7-2.2-1.3-4.3-1.6-6.4
		c-1,1.2-1.7,2.5-2.2,3.8c0.7-6,0.8-12.7-0.7-17.8c-0.6,4.1-2.5,8.2-4.5,12.8c1.2-8.6,0.8-18.7-0.1-31.5
		c-3.8,10.3-5.4,19.5-6.9,27.7c-0.8-3.8-1.5-7.3-1.9-11c-3.6,8.9-2.8,19.2-1.7,25.8c-0.5,1.5-1.2,3-1.9,4.4
		c0.4-7.8-0.5-24.3-7.3-36.7c2.1,12.2-0.4,21.5-0.2,35.5c-1.4-11.1-1-18.9-2.4-27c-2.3,5.9-3.4,12.7-3.8,18.5
		c-0.3-1.3-0.6-2.6-0.7-3.9c-1.2,1.5-2.1,3.1-2.6,4.6c-0.7-3.2-2.1-6.5-4.5-9.5c0.6,3.7,0.1,6.8-0.7,10c-0.2-1.2-0.4-2.3-0.5-3.5
		c-0.9,1-1.6,1.9-2.2,2.9c0-4.7-0.5-9.8-2.3-13.7c-0.3,4.5-2.8,9.2-4.8,14.6c-0.8-3.3-1.5-6.3-1.9-9.4c-2.8,4.3-3.6,9.1-3.5,13.1
		c-0.6-3.1-1.5-5.7-1.6-8.4c-1,1-1.7,2.1-2.3,3.1c2.1-11.6,0.2-24.6,11.7-47.3c-9.9,13.1-14.3,26.1-17.5,37.5
		c-0.3-4.4-0.5-8.6-0.4-12.8c-4.4,6.4-6.4,13.6-7.2,20c-0.3-12,1.1-21.3-0.5-31.1c-3.1,10.3-5.4,22.2-6.3,31.6
		c-0.7-3.1-1.7-6.1-3.4-8.6c0.3,4.4-2.3,9.1-3.7,14.7c-0.5-3.7-1.3-6.9-1.9-9.9c1-2.4,2.3-4.8,4.2-7.2c-1.8,1-3.4,2.2-4.9,3.4
		c-0.2-1.4-0.4-2.7-0.5-4.1c-1.9,2.7-3.1,5.5-3.9,8.2c-1.2,1.3-2.2,2.5-3.2,3.8c-0.5-2.5-1-4.9-1-7.4c-2.4,2.4-4,4.8-5,7.1
		c0.1-5.7-0.5-11.8-2.3-16.5c-0.3,4.8-2.4,9.9-4.3,15.6c-0.9-4.1-1.7-7.8-2-11.7c-3.3,4.6-4.6,9.6-4.9,14c-0.8-3.6-1.7-6.8-1.9-10.2
		c-1.7,2.1-2.8,4.2-3.7,6.4c-0.2-4.7-0.8-9.4-2.3-13.2c-0.3,4.9-2.5,10.1-4.4,16c-0.8-1.9-1.6-3.7-2.1-5.6c-0.5,1.1-0.9,2.2-1.1,3.3
		c-0.7-3-1.3-5.8-1.5-8.6c-3.3,3.8-4.9,7.9-5.6,11.6c-0.7-2.9-1.3-5.5-1.6-8.2c-0.7,1.2-1.3,2.4-1.7,3.7c0.2-4.4,0-8.9-1.1-12.6
		c-0.6,4.1-2.5,8.2-4.5,12.8c1.2-8.6,0.8-18.7-0.1-31.5c-3.4,9.1-5,17.3-6.4,24.8c-1-4.8-1.9-9.1-2.4-13.6
		c-4.3,10.7-2.3,23.5-1.1,29.3c-0.5,1.6-1,3.1-1.7,4.5c0.4-6.5-0.3-15.4-4.6-23c0.5,5.2-0.3,9.7-1.3,14.4c-1.2-12.2-1.3-21.9-3-31.8
		c-3.1,10.1-4.3,21.9-4.4,31.4c-0.8-3.7-1.5-7.1-1.9-10.6c-3.8,7.6-3.3,16.4-2.4,22L96,78.5c1-4.7,2.3-15.8-0.8-22.2
		c0,3.4-0.8,6.3-1.8,9.3c-0.3-1.7-0.6-3.4-0.7-5.1c-1.3,1.6-2.2,3.3-2.9,4.9c0.2-6-0.3-12.7-2.3-17.7c-0.2,3.9-1.6,8-3.2,12.4
		c-0.6-2.9-1.1-5.6-1.3-8.5c-3.3,4.6-4.6,9.6-4.9,14c-0.8-3.6-1.7-6.8-1.9-10.2c-2.9,3.6-4.8,14.3-5.4,17.8
		c-0.2-0.4,0.1-7.8-0.1-8.3c3.7-9.8,5.3-21.5,6.8-37.3C69.1,43.5,64,63.4,59,74.5c2.7-8.4,7.2-26.6,1.7-40.8
		c-1.4,13.4-5,20.8-7.9,28.2c-1.3-6.2-2.7-11.4-3.3-17c-1.7,7.3-2.4,13.8-2.7,19.2c-1.9-6.3-5.2-13.3-10.5-19.2
		c1.7,8,1.9,15.8,3.5,25.9c-2.3-6.3-4.6-11.4-6.1-16.5c-1,5.7-0.3,18.6,0.1,23.1c-0.8-3-2.7-13.9-4.3-17.3c-0.5,3-1.3,6.2-2.2,9.7
		c-1.1-6.8-3.4-15.3-8-22.2c1.1,7.3,1.1,14.4,1.9,23.4c-1.6-4.8-4.5-10.4-10.1-14.9c1,4.3,1.2,8.6,1.7,13.6c-3.4-1.9-7.6-3.5-12.8-4
		c4.8,4,14.1,15.6,14.1,15.6h404.4C418.5,81.2,415,68.7,419.1,56.4z M410,70.5c0,0.3-1,7.9-1,8.2l-0.9-3.9
		C408.3,74.6,409.7,70.9,410,70.5z M404.3,74.4c0.4,0.2,0.9,0.3,1.3,0.4l-1.8,3C403.8,77.7,404.3,74.5,404.3,74.4z M396.8,70.7
		c-0.2,1.6-1.2,5.9-1.1,7l-4.7-0.8C392.6,75.5,395.4,72.1,396.8,70.7z M360.8,72.5c0,0.1,0.2,2.1,0.2,2.2c0.1,0,0.2,0.1,0.4,0.1
		l-6.8,3.2C355.7,77.9,359.8,72.7,360.8,72.5z M274.9,74.8l-2.6,2.9c0.3-1.2,1.5-5.7,1.9-7.4C274.2,72,274.6,73.6,274.9,74.8z
		 M214.1,74.8l-2.8,3c0.6-1.1,2.2-5.1,2.6-6.2C213.8,72.8,213.9,73.9,214.1,74.8z M181.5,74.8l-2.7,3.7c0.2-0.4,2.3-4.5,2.4-4.9
		C181.3,74.1,181.4,74.5,181.5,74.8z M131.5,70.2c0.2,1.8,0.4,3.4,0.7,4.7l-2.7,3.4C130,76.9,131.2,71.9,131.5,70.2z"/>
	<path class="st0" d="M419.1,56.4c-4,1.6-7.4,5.6-8.6,8.3c-0.3-1.5-1-3.2-2.2-4.9c-0.9,2.1-2.3,3.9-3.7,5.9c0-2,0.6-4,0.5-5.8
		c1.9-9.1,6-14.8,9.3-25.1c-4.2,4.6-7.1,9.3-10,13.5c0-0.1-0.4-6.1-0.4-6.3c-0.2,0.4-1.8,7.9-2,8.3c-1.7,2.5-1.8,3.5-3.3,5.8
		c1.1-4.7,1.3-10-0.1-16.1c-3.6,11-8.5,16.8-12.6,22.5c-0.3-5.3-0.7-9.9-0.4-14.7c-2.9,5.9-4.8,11.2-5.9,15.7
		c-0.8-5.5-2.8-11.8-7-17.4c0.3,6.9-0.8,13.5-1,22.1c-0.4-1.7-0.8-3.4-1.2-5c0.2-6.2-0.2-13.4-2.3-18.7c-0.2,3.3-1.2,6.6-2.4,10.2
		c-1.3-2.9-2.5-5.5-3.3-8.3c-3.1,6.6-1.1,13.5,0.5,17.1c-0.3,1.1-0.6,2.3-0.9,3.5c-1.1-6.5-2.9-11.5-3.3-16.8
		c-1.8,2.1-3.1,4.3-4,6.4c-0.8-3.3-1.6-6.4-1.9-9.6c-1.1,1.6-1.9,3.2-2.6,4.7c-0.1-3.9-0.2-7.5,0.2-11.2c-2.8,3.3-4.8,6.8-6.2,10.4
		c-0.1-2.7-0.5-5.3-1.2-7.6c-0.4,2.7-1.4,5.5-2.6,8.4c2-13.4,2.2-29.4,5.2-51.9c-10.9,19.1-12.5,35.2-14,49.1
		c-1.6-8.9-3.3-16.4-4.3-24.3c-3.5,15.7-0.4,34.9,1.3,43.2c-0.4,1.4-0.8,2.7-1.4,4c0.7-6.5,0.5-16.9-4.3-25.4
		c0.5,5.3-0.3,9.7-1.3,14.5c-1.4-12.4-2.6-22.3-9.6-32.3c3,10.2,2.7,24.1,2.7,34.6c-1-4.8-2-8.9-2.5-13.3
		c-4.6,9.2-2.9,20.1-1.8,24.9h-2.9c1.3-3.9,3.2-13.4-0.7-21.5c0,3.4-0.8,6.3-1.8,9.3c-0.3-1.7-0.6-3.4-0.7-5.1
		c-1.6,2.1-2.7,4.2-3.4,6.3c-1.1-3.9-2.1-7.3-2.6-10.9c-1.7,2.3-2.8,4.6-3.5,7c-1.5-4.8-3.4-9.6-6-13.3c1.2,5.5,0.1,11.6,0,18.5
		c-0.7-1.3-1.4-2.6-1.9-3.9c-0.5,0.9-0.9,1.7-1.1,2.6c-0.7-2.3-1.3-4.5-1.5-6.7c-3.3,3-4.9,6.1-5.6,9c-0.7-2.2-1.3-4.3-1.6-6.4
		c-1,1.2-1.7,2.5-2.2,3.8c0.7-6,0.8-12.7-0.7-17.8c-0.6,4.1-2.5,8.2-4.5,12.8c1.2-8.6,0.8-18.7-0.1-31.5
		c-3.8,10.3-5.4,19.5-6.9,27.7c-0.8-3.8-1.5-7.3-1.9-11c-3.6,8.9-2.8,19.2-1.7,25.8c-0.5,1.5-1.2,3-1.9,4.4
		c0.4-7.8-0.5-24.3-7.3-36.7c2.1,12.2-0.4,21.5-0.2,35.5c-1.4-11.1-1-18.9-2.4-27c-2.3,5.9-3.4,12.7-3.8,18.5
		c-0.3-1.3-0.6-2.6-0.7-3.9c-1.2,1.5-2.1,3.1-2.6,4.6c-0.7-3.2-2.1-6.5-4.5-9.5c0.6,3.7,0.1,6.8-0.7,10c-0.2-1.2-0.4-2.3-0.5-3.5
		c-0.9,1-1.6,1.9-2.2,2.9c0-4.7-0.5-9.8-2.3-13.7c-0.3,4.5-2.8,9.2-4.8,14.6c-0.8-3.3-1.5-6.3-1.9-9.4c-2.8,4.3-3.6,9.1-3.5,13.1
		c-0.6-3.1-1.5-5.7-1.6-8.4c-1,1-1.7,2.1-2.3,3.1c2.1-11.6,0.2-24.6,11.7-47.3c-9.9,13.1-14.3,26.1-17.5,37.5
		c-0.3-4.4-0.5-8.6-0.4-12.8c-4.4,6.4-6.4,13.6-7.2,20c-0.3-12,1.1-21.3-0.5-31.1c-3.1,10.3-5.4,22.2-6.3,31.6
		c-0.7-3.1-1.7-6.1-3.4-8.6c0.3,4.4-2.3,9.1-3.7,14.7c-0.5-3.7-1.3-6.9-1.9-9.9c1-2.4,2.3-4.8,4.2-7.2c-1.8,1-3.4,2.2-4.9,3.4
		c-0.2-1.4-0.4-2.7-0.5-4.1c-1.9,2.7-3.1,5.5-3.9,8.2c-1.2,1.3-2.2,2.5-3.2,3.8c-0.5-2.5-1-4.9-1-7.4c-2.4,2.4-4,4.8-5,7.1
		c0.1-5.7-0.5-11.8-2.3-16.5c-0.3,4.8-2.4,9.9-4.3,15.6c-0.9-4.1-1.7-7.8-2-11.7c-3.3,4.6-4.6,9.6-4.9,14c-0.8-3.6-1.7-6.8-1.9-10.2
		c-1.7,2.1-2.8,4.2-3.7,6.4c-0.2-4.7-0.8-9.4-2.3-13.2c-0.3,4.9-2.5,10.1-4.4,16c-0.8-1.9-1.6-3.7-2.1-5.6c-0.5,1.1-0.9,2.2-1.1,3.3
		c-0.7-3-1.3-5.8-1.5-8.6c-3.3,3.8-4.9,7.9-5.6,11.6c-0.7-2.9-1.3-5.5-1.6-8.2c-0.7,1.2-1.3,2.4-1.7,3.7c0.2-4.4,0-8.9-1.1-12.6
		c-0.6,4.1-2.5,8.2-4.5,12.8c1.2-8.6,0.8-18.7-0.1-31.5c-3.4,9.1-5,17.3-6.4,24.8c-1-4.8-1.9-9.1-2.4-13.6
		c-4.3,10.7-2.3,23.5-1.1,29.3c-0.5,1.6-1,3.1-1.7,4.5c0.4-6.5-0.3-15.4-4.6-23c0.5,5.2-0.3,9.7-1.3,14.4c-1.2-12.2-1.3-21.9-3-31.8
		c-3.1,10.1-4.3,21.9-4.4,31.4c-0.8-3.7-1.5-7.1-1.9-10.6c-3.8,7.6-3.3,16.4-2.4,22L96,78.5c1-4.7,2.3-15.8-0.8-22.2
		c0,3.4-0.8,6.3-1.8,9.3c-0.3-1.7-0.6-3.4-0.7-5.1c-1.3,1.6-2.2,3.3-2.9,4.9c0.2-6-0.3-12.7-2.3-17.7c-0.2,3.9-1.6,8-3.2,12.4
		c-0.6-2.9-1.1-5.6-1.3-8.5c-3.3,4.6-4.6,9.6-4.9,14c-0.8-3.6-1.7-6.8-1.9-10.2c-2.9,3.6-4.8,14.3-5.4,17.8
		c-0.2-0.4,0.1-7.8-0.1-8.3c3.7-9.8,5.3-21.5,6.8-37.3C69.1,43.5,64,63.4,59,74.5c2.7-8.4,7.2-26.6,1.7-40.8
		c-1.4,13.4-5,20.8-7.9,28.2c-1.3-6.2-2.7-11.4-3.3-17c-1.7,7.3-2.4,13.8-2.7,19.2c-1.9-6.3-5.2-13.3-10.5-19.2
		c1.7,8,1.9,15.8,3.5,25.9c-2.3-6.3-4.6-11.4-6.1-16.5c-1,5.7-0.3,18.6,0.1,23.1c-0.8-3-2.7-13.9-4.3-17.3c-0.5,3-1.3,6.2-2.2,9.7
		c-1.1-6.8-3.4-15.3-8-22.2c1.1,7.3,1.1,14.4,1.9,23.4c-1.6-4.8-4.5-10.4-10.1-14.9c1,4.3,1.2,8.6,1.7,13.6c-3.4-1.9-7.6-3.5-12.8-4
		c4.8,4,14.1,15.6,14.1,15.6h404.4C418.5,81.2,415,68.7,419.1,56.4z M410,70.5c0,0.3-1,7.9-1,8.2l-0.9-3.9
		C408.3,74.6,409.7,70.9,410,70.5z M404.3,74.4c0.4,0.2,0.9,0.3,1.3,0.4l-1.8,3C403.8,77.7,404.3,74.5,404.3,74.4z M396.8,70.7
		c-0.2,1.6-1.2,5.9-1.1,7l-4.7-0.8C392.6,75.5,395.4,72.1,396.8,70.7z M360.8,72.5c0,0.1,0.2,2.1,0.2,2.2c0.1,0,0.2,0.1,0.4,0.1
		l-6.8,3.2C355.7,77.9,359.8,72.7,360.8,72.5z M274.9,74.8l-2.6,2.9c0.3-1.2,1.5-5.7,1.9-7.4C274.2,72,274.6,73.6,274.9,74.8z
		 M214.1,74.8l-2.8,3c0.6-1.1,2.2-5.1,2.6-6.2C213.8,72.8,213.9,73.9,214.1,74.8z M181.5,74.8l-2.7,3.7c0.2-0.4,2.3-4.5,2.4-4.9
		C181.3,74.1,181.4,74.5,181.5,74.8z M131.5,70.2c0.2,1.8,0.4,3.4,0.7,4.7l-2.7,3.4C130,76.9,131.2,71.9,131.5,70.2z"/>
	<path class="st0" d="M419.1,56.4c-4,1.6-7.4,5.6-8.6,8.3c-0.3-1.5-1-3.2-2.2-4.9c-0.9,2.1-2.3,3.9-3.7,5.9c0-2,0.6-4,0.5-5.8
		c1.9-9.1,6-14.8,9.3-25.1c-4.2,4.6-7.1,9.3-10,13.5c0-0.1-0.4-6.1-0.4-6.3c-0.2,0.4-1.8,7.9-2,8.3c-1.7,2.5-1.8,3.5-3.3,5.8
		c1.1-4.7,1.3-10-0.1-16.1c-3.6,11-8.5,16.8-12.6,22.5c-0.3-5.3-0.7-9.9-0.4-14.7c-2.9,5.9-4.8,11.2-5.9,15.7
		c-0.8-5.5-2.8-11.8-7-17.4c0.3,6.9-0.8,13.5-1,22.1c-0.4-1.7-0.8-3.4-1.2-5c0.2-6.2-0.2-13.4-2.3-18.7c-0.2,3.3-1.2,6.6-2.4,10.2
		c-1.3-2.9-2.5-5.5-3.3-8.3c-3.1,6.6-1.1,13.5,0.5,17.1c-0.3,1.1-0.6,2.3-0.9,3.5c-1.1-6.5-2.9-11.5-3.3-16.8
		c-1.8,2.1-3.1,4.3-4,6.4c-0.8-3.3-1.6-6.4-1.9-9.6c-1.1,1.6-1.9,3.2-2.6,4.7c-0.1-3.9-0.2-7.5,0.2-11.2c-2.8,3.3-4.8,6.8-6.2,10.4
		c-0.1-2.7-0.5-5.3-1.2-7.6c-0.4,2.7-1.4,5.5-2.6,8.4c2-13.4,2.2-29.4,5.2-51.9c-10.9,19.1-12.5,35.2-14,49.1
		c-1.6-8.9-3.3-16.4-4.3-24.3c-3.5,15.7-0.4,34.9,1.3,43.2c-0.4,1.4-0.8,2.7-1.4,4c0.7-6.5,0.5-16.9-4.3-25.4
		c0.5,5.3-0.3,9.7-1.3,14.5c-1.4-12.4-2.6-22.3-9.6-32.3c3,10.2,2.7,24.1,2.7,34.6c-1-4.8-2-8.9-2.5-13.3
		c-4.6,9.2-2.9,20.1-1.8,24.9h-2.9c1.3-3.9,3.2-13.4-0.7-21.5c0,3.4-0.8,6.3-1.8,9.3c-0.3-1.7-0.6-3.4-0.7-5.1
		c-1.6,2.1-2.7,4.2-3.4,6.3c-1.1-3.9-2.1-7.3-2.6-10.9c-1.7,2.3-2.8,4.6-3.5,7c-1.5-4.8-3.4-9.6-6-13.3c1.2,5.5,0.1,11.6,0,18.5
		c-0.7-1.3-1.4-2.6-1.9-3.9c-0.5,0.9-0.9,1.7-1.1,2.6c-0.7-2.3-1.3-4.5-1.5-6.7c-3.3,3-4.9,6.1-5.6,9c-0.7-2.2-1.3-4.3-1.6-6.4
		c-1,1.2-1.7,2.5-2.2,3.8c0.7-6,0.8-12.7-0.7-17.8c-0.6,4.1-2.5,8.2-4.5,12.8c1.2-8.6,0.8-18.7-0.1-31.5
		c-3.8,10.3-5.4,19.5-6.9,27.7c-0.8-3.8-1.5-7.3-1.9-11c-3.6,8.9-2.8,19.2-1.7,25.8c-0.5,1.5-1.2,3-1.9,4.4
		c0.4-7.8-0.5-24.3-7.3-36.7c2.1,12.2-0.4,21.5-0.2,35.5c-1.4-11.1-1-18.9-2.4-27c-2.3,5.9-3.4,12.7-3.8,18.5
		c-0.3-1.3-0.6-2.6-0.7-3.9c-1.2,1.5-2.1,3.1-2.6,4.6c-0.7-3.2-2.1-6.5-4.5-9.5c0.6,3.7,0.1,6.8-0.7,10c-0.2-1.2-0.4-2.3-0.5-3.5
		c-0.9,1-1.6,1.9-2.2,2.9c0-4.7-0.5-9.8-2.3-13.7c-0.3,4.5-2.8,9.2-4.8,14.6c-0.8-3.3-1.5-6.3-1.9-9.4c-2.8,4.3-3.6,9.1-3.5,13.1
		c-0.6-3.1-1.5-5.7-1.6-8.4c-1,1-1.7,2.1-2.3,3.1c2.1-11.6,0.2-24.6,11.7-47.3c-9.9,13.1-14.3,26.1-17.5,37.5
		c-0.3-4.4-0.5-8.6-0.4-12.8c-4.4,6.4-6.4,13.6-7.2,20c-0.3-12,1.1-21.3-0.5-31.1c-3.1,10.3-5.4,22.2-6.3,31.6
		c-0.7-3.1-1.7-6.1-3.4-8.6c0.3,4.4-2.3,9.1-3.7,14.7c-0.5-3.7-1.3-6.9-1.9-9.9c1-2.4,2.3-4.8,4.2-7.2c-1.8,1-3.4,2.2-4.9,3.4
		c-0.2-1.4-0.4-2.7-0.5-4.1c-1.9,2.7-3.1,5.5-3.9,8.2c-1.2,1.3-2.2,2.5-3.2,3.8c-0.5-2.5-1-4.9-1-7.4c-2.4,2.4-4,4.8-5,7.1
		c0.1-5.7-0.5-11.8-2.3-16.5c-0.3,4.8-2.4,9.9-4.3,15.6c-0.9-4.1-1.7-7.8-2-11.7c-3.3,4.6-4.6,9.6-4.9,14c-0.8-3.6-1.7-6.8-1.9-10.2
		c-1.7,2.1-2.8,4.2-3.7,6.4c-0.2-4.7-0.8-9.4-2.3-13.2c-0.3,4.9-2.5,10.1-4.4,16c-0.8-1.9-1.6-3.7-2.1-5.6c-0.5,1.1-0.9,2.2-1.1,3.3
		c-0.7-3-1.3-5.8-1.5-8.6c-3.3,3.8-4.9,7.9-5.6,11.6c-0.7-2.9-1.3-5.5-1.6-8.2c-0.7,1.2-1.3,2.4-1.7,3.7c0.2-4.4,0-8.9-1.1-12.6
		c-0.6,4.1-2.5,8.2-4.5,12.8c1.2-8.6,0.8-18.7-0.1-31.5c-3.4,9.1-5,17.3-6.4,24.8c-1-4.8-1.9-9.1-2.4-13.6
		c-4.3,10.7-2.3,23.5-1.1,29.3c-0.5,1.6-1,3.1-1.7,4.5c0.4-6.5-0.3-15.4-4.6-23c0.5,5.2-0.3,9.7-1.3,14.4c-1.2-12.2-1.3-21.9-3-31.8
		c-3.1,10.1-4.3,21.9-4.4,31.4c-0.8-3.7-1.5-7.1-1.9-10.6c-3.8,7.6-3.3,16.4-2.4,22L96,78.5c1-4.7,2.3-15.8-0.8-22.2
		c0,3.4-0.8,6.3-1.8,9.3c-0.3-1.7-0.6-3.4-0.7-5.1c-1.3,1.6-2.2,3.3-2.9,4.9c0.2-6-0.3-12.7-2.3-17.7c-0.2,3.9-1.6,8-3.2,12.4
		c-0.6-2.9-1.1-5.6-1.3-8.5c-3.3,4.6-4.6,9.6-4.9,14c-0.8-3.6-1.7-6.8-1.9-10.2c-2.9,3.6-4.8,14.3-5.4,17.8
		c-0.2-0.4,0.1-7.8-0.1-8.3c3.7-9.8,5.3-21.5,6.8-37.3C69.1,43.5,64,63.4,59,74.5c2.7-8.4,7.2-26.6,1.7-40.8
		c-1.4,13.4-5,20.8-7.9,28.2c-1.3-6.2-2.7-11.4-3.3-17c-1.7,7.3-2.4,13.8-2.7,19.2c-1.9-6.3-5.2-13.3-10.5-19.2
		c1.7,8,1.9,15.8,3.5,25.9c-2.3-6.3-4.6-11.4-6.1-16.5c-1,5.7-0.3,18.6,0.1,23.1c-0.8-3-2.7-13.9-4.3-17.3c-0.5,3-1.3,6.2-2.2,9.7
		c-1.1-6.8-3.4-15.3-8-22.2c1.1,7.3,1.1,14.4,1.9,23.4c-1.6-4.8-4.5-10.4-10.1-14.9c1,4.3,1.2,8.6,1.7,13.6c-3.4-1.9-7.6-3.5-12.8-4
		c4.8,4,14.1,15.6,14.1,15.6h404.4C418.5,81.2,415,68.7,419.1,56.4z M410,70.5c0,0.3-1,7.9-1,8.2l-0.9-3.9
		C408.3,74.6,409.7,70.9,410,70.5z M404.3,74.4c0.4,0.2,0.9,0.3,1.3,0.4l-1.8,3C403.8,77.7,404.3,74.5,404.3,74.4z M396.8,70.7
		c-0.2,1.6-1.2,5.9-1.1,7l-4.7-0.8C392.6,75.5,395.4,72.1,396.8,70.7z M360.8,72.5c0,0.1,0.2,2.1,0.2,2.2c0.1,0,0.2,0.1,0.4,0.1
		l-6.8,3.2C355.7,77.9,359.8,72.7,360.8,72.5z M274.9,74.8l-2.6,2.9c0.3-1.2,1.5-5.7,1.9-7.4C274.2,72,274.6,73.6,274.9,74.8z
		 M214.1,74.8l-2.8,3c0.6-1.1,2.2-5.1,2.6-6.2C213.8,72.8,213.9,73.9,214.1,74.8z M181.5,74.8l-2.7,3.7c0.2-0.4,2.3-4.5,2.4-4.9
		C181.3,74.1,181.4,74.5,181.5,74.8z M131.5,70.2c0.2,1.8,0.4,3.4,0.7,4.7l-2.7,3.4C130,76.9,131.2,71.9,131.5,70.2z"/>
</g>
</svg>
